<svg class="marks" width="650" height="240" viewBox="0 0 650 240" version="1.1" xmlns="http://www.w3.org/2000/svg" xmlns:xlink="http://www.w3.org/1999/xlink"><g transform="translate(25,22)"><g class="mark-group role-frame root"><g transform="translate(0,0)"><path class="background" d="M0,0h600v200h-600Z" style="fill: none;"></path><g><g class="mark-group role-axis"><g transform="translate(0.5,200.5)"><path class="background" d="M0,0h0v0h0Z" style="pointer-events: none; fill: none;"></path><g><g class="mark-rule role-axis-tick" style="pointer-events: none;"><line transform="translate(0,0)" x2="0" y2="5" style="fill: none; stroke: #888; stroke-width: 1; opacity: 1;"></line><line transform="translate(74,0)" x2="0" y2="5" style="fill: none; stroke: #888; stroke-width: 1; opacity: 1;"></line><line transform="translate(149,0)" x2="0" y2="5" style="fill: none; stroke: #888; stroke-width: 1; opacity: 1;"></line><line transform="translate(224,0)" x2="0" y2="5" style="fill: none; stroke: #888; stroke-width: 1; opacity: 1;"></line><line transform="translate(300,0)" x2="0" y2="5" style="fill: none; stroke: #888; stroke-width: 1; opacity: 1;"></line><line transform="translate(374,0)" x2="0" y2="5" style="fill: none; stroke: #888; stroke-width: 1; opacity: 1;"></line><line transform="translate(449,0)" x2="0" y2="5" style="fill: none; stroke: #888; stroke-width: 1; opacity: 1;"></line><line transform="translate(524,0)" x2="0" y2="5" style="fill: none; stroke: #888; stroke-width: 1; opacity: 1;"></line><line transform="translate(600,0)" x2="0" y2="5" style="fill: none; stroke: #888; stroke-width: 1; opacity: 1;"></line></g><g class="mark-text role-axis-label" style="pointer-events: none;"><text text-anchor="middle" transform="translate(0,16)" style="font-family: Ideal Sans, Avenir Next, Helvetica; font-size: 12px; fill: #000; opacity: 1;">2011</text><text text-anchor="middle" transform="translate(73.87140902872777,16)" style="font-family: Ideal Sans, Avenir Next, Helvetica; font-size: 12px; fill: #000; opacity: 1;">2011</text><text text-anchor="middle" transform="translate(148.56361149110808,16)" style="font-family: Ideal Sans, Avenir Next, Helvetica; font-size: 12px; fill: #000; opacity: 1;">2011</text><text text-anchor="middle" transform="translate(224.07660738714088,16)" style="font-family: Ideal Sans, Avenir Next, Helvetica; font-size: 12px; fill: #000; opacity: 1;">2011</text><text text-anchor="middle" transform="translate(299.58960328317374,16)" style="font-family: Ideal Sans, Avenir Next, Helvetica; font-size: 12px; fill: #000; opacity: 1;">2012</text><text text-anchor="middle" transform="translate(374.28180574555404,16)" style="font-family: Ideal Sans, Avenir Next, Helvetica; font-size: 12px; fill: #000; opacity: 1;">2012</text><text text-anchor="middle" transform="translate(448.97400820793433,16)" style="font-family: Ideal Sans, Avenir Next, Helvetica; font-size: 12px; fill: #000; opacity: 1;">2012</text><text text-anchor="middle" transform="translate(524.4870041039671,16)" style="font-family: Ideal Sans, Avenir Next, Helvetica; font-size: 12px; fill: #000; opacity: 1;">2012</text><text text-anchor="middle" transform="translate(600,16)" style="font-family: Ideal Sans, Avenir Next, Helvetica; font-size: 12px; fill: #000; opacity: 1;">2013</text></g><g class="mark-rule role-axis-domain" style="pointer-events: none;"><line transform="translate(0,0)" x2="600" y2="0" style="fill: none; stroke: #888; stroke-width: 1; opacity: 1;"></line></g></g></g></g><g class="mark-rect role-mark rectangles"><path d="M-25,85h50v40h-50Z" style="fill: #1b9e77; fill-opacity: 1;"></path><path d="M274.58960328317374,85h50v40h-50Z" style="fill: #d95f02; fill-opacity: 1;"></path><path d="M575,85h50v40h-50Z" style="fill: #1b9e77; fill-opacity: 1;"></path></g><g class="mark-text role-mark labels" style="pointer-events: none;"><text text-anchor="middle" transform="translate(0,108)" style="font-family: Ideal Sans, Avenir Next, Helvetica; font-size: 11px; font-weight: bold; fill: black;">d3</text><text text-anchor="middle" transform="translate(299.58960328317374,108)" style="font-family: Ideal Sans, Avenir Next, Helvetica; font-size: 11px; font-weight: bold; fill: black;">plotly</text><text text-anchor="middle" transform="translate(600,108)" style="font-family: Ideal Sans, Avenir Next, Helvetica; font-size: 11px; font-weight: bold; fill: black;">vega</text></g><g class="mark-rule role-mark"><line transform="translate(0,125)" x2="0" y2="75" style="fill: none; stroke: #000; stroke-width: 2;"></line><line transform="translate(299.58960328317374,125)" x2="0" y2="75" style="fill: none; stroke: #000; stroke-width: 2;"></line><line transform="translate(600,125)" x2="0" y2="75" style="fill: none; stroke: #000; stroke-width: 2;"></line></g><g class="mark-group role-legend"><g transform="translate(500,0)"><path class="background" d="M0,0h93v46h-93Z" style="pointer-events: none; fill: none;"></path><g><g class="mark-group role-legend-entry"><g transform="translate(0,20)"><path class="background" d="M0,0h0v0h0Z" style="pointer-events: none; fill: none;"></path><g><g class="mark-group role-scope"><g transform="translate(0,0)"><path class="background" d="M0,0h92.03125v12h-92.03125Z" style="pointer-events: none; fill: none; opacity: 1;"></path><g><g class="mark-symbol role-legend-symbol" style="pointer-events: none;"><path transform="translate(6,6)" d="M5,0A5,5,0,1,1,-5,0A5,5,0,1,1,5,0" style="fill: #1b9e77; stroke-width: 1.5; opacity: 1;"></path></g><g class="mark-text role-legend-label" style="pointer-events: none;"><text text-anchor="start" transform="translate(16,10)" style="font-family: sans-serif; font-size: 12px; fill: #000; opacity: 1;">BSD 3-Clause</text></g></g></g><g transform="translate(0,14)"><path class="background" d="M0,0h92.03125v12h-92.03125Z" style="pointer-events: none; fill: none; opacity: 1;"></path><g><g class="mark-symbol role-legend-symbol" style="pointer-events: none;"><path transform="translate(6,6)" d="M5,0A5,5,0,1,1,-5,0A5,5,0,1,1,5,0" style="fill: #d95f02; stroke-width: 1.5; opacity: 1;"></path></g><g class="mark-text role-legend-label" style="pointer-events: none;"><text text-anchor="start" transform="translate(16,10)" style="font-family: sans-serif; font-size: 12px; fill: #000; opacity: 1;">MIT</text></g></g></g></g></g></g></g><g class="mark-text role-legend-title" style="pointer-events: none;"><text text-anchor="start" transform="translate(0,12)" style="font-family: sans-serif; font-size: 15px; font-weight: bold; fill: #000; opacity: 1;">License</text></g></g></g></g><g class="mark-text role-title" style="pointer-events: none;"><text text-anchor="start" transform="translate(-1,-8)" style="font-family: Ideal Sans, Avenir Next, Helvetica; font-size: 17px; font-weight: 500; fill: #000; opacity: 1;">Data visualization tools release dates</text></g></g></g></g></g></svg>